<mxfile host="app.diagrams.net" modified="2024-04-12T12:42:15.457Z" agent="Mozilla/5.0 (Windows NT 10.0; Win64; x64) AppleWebKit/537.36 (KHTML, like Gecko) Chrome/123.0.0.0 Safari/537.36" etag="csCHPDtp1emdderRiLry" version="24.2.3" type="device">
  <diagram name="Page-1" id="n1vcmG03-noxq7ozdZy6">
    <mxGraphModel dx="1444" dy="811" grid="1" gridSize="10" guides="1" tooltips="1" connect="1" arrows="1" fold="1" page="1" pageScale="1" pageWidth="827" pageHeight="1169" math="0" shadow="0">
      <root>
        <mxCell id="0" />
        <mxCell id="1" parent="0" />
        <mxCell id="Aju2JNwmQ9cpN_8OAdIG-1" value="" style="shape=actor;whiteSpace=wrap;html=1;labelBackgroundColor=none;" parent="1" vertex="1">
          <mxGeometry x="260" y="20" width="90" height="111.8" as="geometry" />
        </mxCell>
        <mxCell id="Aju2JNwmQ9cpN_8OAdIG-2" value="" style="image;points=[];aspect=fixed;html=1;align=center;shadow=0;dashed=0;image=img/lib/allied_telesis/computer_and_terminals/Personal_Computer.svg;labelBackgroundColor=none;" parent="1" vertex="1">
          <mxGeometry x="559.4" y="15.79" width="85.6" height="116.01" as="geometry" />
        </mxCell>
        <mxCell id="Aju2JNwmQ9cpN_8OAdIG-13" value="" style="endArrow=classic;html=1;rounded=0;labelBackgroundColor=none;fontColor=default;" parent="1" edge="1">
          <mxGeometry width="50" height="50" relative="1" as="geometry">
            <mxPoint x="360" y="80" as="sourcePoint" />
            <mxPoint x="540" y="80" as="targetPoint" />
          </mxGeometry>
        </mxCell>
        <mxCell id="Aju2JNwmQ9cpN_8OAdIG-14" value="" style="endArrow=classic;html=1;rounded=0;labelBackgroundColor=none;fontColor=default;" parent="1" edge="1">
          <mxGeometry width="50" height="50" relative="1" as="geometry">
            <mxPoint x="530" y="110" as="sourcePoint" />
            <mxPoint x="360" y="110" as="targetPoint" />
            <Array as="points">
              <mxPoint x="440" y="110" />
            </Array>
          </mxGeometry>
        </mxCell>
        <mxCell id="Aju2JNwmQ9cpN_8OAdIG-21" value="" style="rounded=0;whiteSpace=wrap;html=1;fillColor=none;labelBackgroundColor=none;" parent="1" vertex="1">
          <mxGeometry x="366.1" y="980" width="490" height="140" as="geometry" />
        </mxCell>
        <mxCell id="tfpbgC91K9y8WhQnjP1T-2" style="edgeStyle=orthogonalEdgeStyle;rounded=0;orthogonalLoop=1;jettySize=auto;html=1;exitX=0.5;exitY=1;exitDx=0;exitDy=0;entryX=0.5;entryY=0;entryDx=0;entryDy=0;" edge="1" parent="1" source="Aju2JNwmQ9cpN_8OAdIG-23" target="Aju2JNwmQ9cpN_8OAdIG-21">
          <mxGeometry relative="1" as="geometry" />
        </mxCell>
        <mxCell id="Aju2JNwmQ9cpN_8OAdIG-23" value="" style="rounded=0;whiteSpace=wrap;html=1;fillColor=none;labelBackgroundColor=none;" parent="1" vertex="1">
          <mxGeometry x="310" y="750" width="600" height="160" as="geometry" />
        </mxCell>
        <mxCell id="Aju2JNwmQ9cpN_8OAdIG-24" value="&lt;font style=&quot;font-size: 16px;&quot;&gt;Top 5 items of each&lt;/font&gt;" style="text;html=1;align=center;verticalAlign=middle;resizable=0;points=[];autosize=1;strokeColor=none;fillColor=none;labelBackgroundColor=none;" parent="1" vertex="1">
          <mxGeometry x="310" y="760" width="160" height="30" as="geometry" />
        </mxCell>
        <mxCell id="XRpgbQClt98jC-BGvjAs-1" value="" style="endArrow=none;html=1;rounded=0;exitX=1;exitY=0.5;exitDx=0;exitDy=0;labelBackgroundColor=none;fontColor=default;" parent="1" source="Aju2JNwmQ9cpN_8OAdIG-21" edge="1">
          <mxGeometry width="50" height="50" relative="1" as="geometry">
            <mxPoint x="740" y="1010" as="sourcePoint" />
            <mxPoint x="1060" y="80" as="targetPoint" />
            <Array as="points">
              <mxPoint x="1060" y="1050" />
            </Array>
          </mxGeometry>
        </mxCell>
        <mxCell id="XRpgbQClt98jC-BGvjAs-3" value="" style="endArrow=classic;html=1;rounded=0;labelBackgroundColor=none;fontColor=default;" parent="1" edge="1">
          <mxGeometry width="50" height="50" relative="1" as="geometry">
            <mxPoint x="570" y="140" as="sourcePoint" />
            <mxPoint x="510" y="210" as="targetPoint" />
          </mxGeometry>
        </mxCell>
        <mxCell id="XRpgbQClt98jC-BGvjAs-4" value="" style="endArrow=classic;html=1;rounded=0;labelBackgroundColor=none;fontColor=default;" parent="1" edge="1">
          <mxGeometry width="50" height="50" relative="1" as="geometry">
            <mxPoint x="645" y="140" as="sourcePoint" />
            <mxPoint x="720" y="210" as="targetPoint" />
          </mxGeometry>
        </mxCell>
        <mxCell id="XRpgbQClt98jC-BGvjAs-5" value="&lt;font style=&quot;font-size: 16px;&quot;&gt;Height, Weight&lt;/font&gt;" style="text;html=1;align=center;verticalAlign=middle;resizable=0;points=[];autosize=1;strokeColor=none;fillColor=none;rotation=-50;labelBackgroundColor=none;" parent="1" vertex="1">
          <mxGeometry x="465" y="150" width="130" height="30" as="geometry" />
        </mxCell>
        <mxCell id="XRpgbQClt98jC-BGvjAs-6" value="&lt;font style=&quot;font-size: 16px;&quot;&gt;Preferences&lt;/font&gt;" style="text;html=1;align=center;verticalAlign=middle;resizable=0;points=[];autosize=1;strokeColor=none;fillColor=none;rotation=45;labelBackgroundColor=none;" parent="1" vertex="1">
          <mxGeometry x="635" y="150" width="110" height="30" as="geometry" />
        </mxCell>
        <mxCell id="XRpgbQClt98jC-BGvjAs-9" value="" style="endArrow=classic;html=1;rounded=0;labelBackgroundColor=none;fontColor=default;" parent="1" edge="1">
          <mxGeometry width="50" height="50" relative="1" as="geometry">
            <mxPoint x="1060" y="80" as="sourcePoint" />
            <mxPoint x="660" y="80" as="targetPoint" />
          </mxGeometry>
        </mxCell>
        <mxCell id="XRpgbQClt98jC-BGvjAs-11" value="&lt;font style=&quot;font-size: 16px;&quot;&gt;Input&lt;/font&gt;" style="text;html=1;align=center;verticalAlign=middle;resizable=0;points=[];autosize=1;strokeColor=none;fillColor=none;labelBackgroundColor=none;" parent="1" vertex="1">
          <mxGeometry x="415" y="50" width="60" height="30" as="geometry" />
        </mxCell>
        <mxCell id="XRpgbQClt98jC-BGvjAs-12" value="&lt;font style=&quot;font-size: 16px;&quot;&gt;Output&lt;/font&gt;" style="text;html=1;align=center;verticalAlign=middle;resizable=0;points=[];autosize=1;strokeColor=none;fillColor=none;labelBackgroundColor=none;" parent="1" vertex="1">
          <mxGeometry x="409" y="110" width="70" height="30" as="geometry" />
        </mxCell>
        <mxCell id="XRpgbQClt98jC-BGvjAs-13" value="&lt;font style=&quot;font-size: 16px;&quot;&gt;Output&lt;/font&gt;" style="text;html=1;align=center;verticalAlign=middle;resizable=0;points=[];autosize=1;strokeColor=none;fillColor=none;labelBackgroundColor=none;" parent="1" vertex="1">
          <mxGeometry x="920" y="1012.75" width="70" height="30" as="geometry" />
        </mxCell>
        <mxCell id="XRpgbQClt98jC-BGvjAs-14" value="&lt;font style=&quot;&quot;&gt;&lt;b style=&quot;&quot;&gt;&lt;font style=&quot;font-size: 18px;&quot;&gt;Input includes:&lt;/font&gt;&lt;/b&gt;&lt;br&gt;&lt;span style=&quot;font-size: 16px;&quot;&gt;Age&amp;nbsp;&lt;/span&gt;&lt;br&gt;&lt;span style=&quot;font-size: 16px;&quot;&gt;Height&lt;/span&gt;&lt;br&gt;&lt;span style=&quot;font-size: 16px;&quot;&gt;Weight&lt;/span&gt;&lt;br&gt;&lt;span style=&quot;font-size: 16px;&quot;&gt;Gender&lt;/span&gt;&lt;br&gt;&lt;span style=&quot;font-size: 16px;&quot;&gt;Activity (exercise level)&lt;/span&gt;&lt;br&gt;&lt;span style=&quot;font-size: 16px;&quot;&gt;weight loss goal&amp;nbsp;&lt;/span&gt;&lt;/font&gt;" style="text;html=1;align=center;verticalAlign=middle;resizable=0;points=[];autosize=1;strokeColor=none;fillColor=none;labelBackgroundColor=none;" parent="1" vertex="1">
          <mxGeometry x="310" y="1169" width="190" height="150" as="geometry" />
        </mxCell>
        <mxCell id="XRpgbQClt98jC-BGvjAs-15" value="&lt;font style=&quot;&quot;&gt;&lt;b style=&quot;&quot;&gt;&lt;font style=&quot;font-size: 18px;&quot;&gt;Output includes&lt;/font&gt;&lt;/b&gt;&lt;b style=&quot;font-size: 16px;&quot;&gt;:&lt;br&gt;&lt;/b&gt;&lt;span style=&quot;font-size: 16px;&quot;&gt;Food Combination with&lt;/span&gt;&lt;br&gt;&lt;font style=&quot;font-size: 15px;&quot;&gt;Nutritional value and&amp;nbsp;&lt;/font&gt;&lt;/font&gt;&lt;div&gt;&lt;font style=&quot;&quot;&gt;&lt;font style=&quot;font-size: 15px;&quot;&gt;Preparation guide&lt;/font&gt;&lt;/font&gt;&lt;/div&gt;" style="text;html=1;align=center;verticalAlign=middle;resizable=0;points=[];autosize=1;strokeColor=none;fillColor=none;labelBackgroundColor=none;" parent="1" vertex="1">
          <mxGeometry x="810" y="1169" width="190" height="90" as="geometry" />
        </mxCell>
        <mxCell id="XRpgbQClt98jC-BGvjAs-16" value="&lt;font style=&quot;&quot;&gt;&lt;font style=&quot;font-size: 18px;&quot;&gt;&lt;b&gt;Preferences includes:&lt;/b&gt;&lt;/font&gt;&lt;br&gt;&lt;span style=&quot;font-size: 16px;&quot;&gt;Activity (exercise level)&lt;/span&gt;&lt;br style=&quot;border-color: var(--border-color);&quot;&gt;&lt;span style=&quot;font-size: 16px;&quot;&gt;weight loss goal&amp;nbsp;&lt;/span&gt;&lt;/font&gt;" style="text;html=1;align=center;verticalAlign=middle;resizable=0;points=[];autosize=1;strokeColor=none;fillColor=none;labelBackgroundColor=none;" parent="1" vertex="1">
          <mxGeometry x="555" y="1169" width="210" height="70" as="geometry" />
        </mxCell>
        <mxCell id="uosSP-KWc_ZH1w44g_Wn-11" value="" style="endArrow=classic;html=1;rounded=0;exitX=0.5;exitY=1;exitDx=0;exitDy=0;entryX=0.5;entryY=0;entryDx=0;entryDy=0;labelBackgroundColor=none;fontColor=default;" parent="1" source="7BEwGQgFlfe1MWZmraR1-1" target="7BEwGQgFlfe1MWZmraR1-4" edge="1">
          <mxGeometry width="50" height="50" relative="1" as="geometry">
            <mxPoint x="614.7" y="467.56999999999994" as="sourcePoint" />
            <mxPoint x="613.6000000000001" y="520" as="targetPoint" />
          </mxGeometry>
        </mxCell>
        <mxCell id="uosSP-KWc_ZH1w44g_Wn-12" value="" style="endArrow=classic;html=1;rounded=0;exitX=0.5;exitY=1;exitDx=0;exitDy=0;entryX=0.5;entryY=0;entryDx=0;entryDy=0;labelBackgroundColor=none;fontColor=default;" parent="1" source="7BEwGQgFlfe1MWZmraR1-4" target="7BEwGQgFlfe1MWZmraR1-5" edge="1">
          <mxGeometry width="50" height="50" relative="1" as="geometry">
            <mxPoint x="606.1600000000003" y="583" as="sourcePoint" />
            <mxPoint x="605.0000000000002" y="620" as="targetPoint" />
          </mxGeometry>
        </mxCell>
        <mxCell id="uosSP-KWc_ZH1w44g_Wn-13" value="" style="endArrow=classic;html=1;rounded=0;entryX=0.5;entryY=0;entryDx=0;entryDy=0;labelBackgroundColor=none;fontColor=default;" parent="1" source="7BEwGQgFlfe1MWZmraR1-5" target="Aju2JNwmQ9cpN_8OAdIG-23" edge="1">
          <mxGeometry width="50" height="50" relative="1" as="geometry">
            <mxPoint x="605.0000000000002" y="710" as="sourcePoint" />
            <mxPoint x="600" y="720" as="targetPoint" />
          </mxGeometry>
        </mxCell>
        <mxCell id="7BEwGQgFlfe1MWZmraR1-1" value="&lt;font style=&quot;font-size: 16px;&quot;&gt;BMR and&lt;br style=&quot;border-color: var(--border-color);&quot;&gt;Preferences&lt;br style=&quot;border-color: var(--border-color);&quot;&gt;Balance&lt;/font&gt;" style="rounded=0;whiteSpace=wrap;html=1;fillColor=none;labelBackgroundColor=none;" parent="1" vertex="1">
          <mxGeometry x="550" y="400" width="120" height="60" as="geometry" />
        </mxCell>
        <mxCell id="7BEwGQgFlfe1MWZmraR1-2" value="&lt;font style=&quot;font-size: 16px;&quot;&gt;Preferences&lt;/font&gt;" style="rounded=0;whiteSpace=wrap;html=1;fillColor=none;labelBackgroundColor=none;strokeWidth=1;" parent="1" vertex="1">
          <mxGeometry x="675" y="230" width="120" height="60" as="geometry" />
        </mxCell>
        <mxCell id="6-ax5gqfqIAEhhLST6IZ-2" value="" style="edgeStyle=orthogonalEdgeStyle;rounded=0;orthogonalLoop=1;jettySize=auto;html=1;" parent="1" source="7BEwGQgFlfe1MWZmraR1-3" target="6-ax5gqfqIAEhhLST6IZ-1" edge="1">
          <mxGeometry relative="1" as="geometry" />
        </mxCell>
        <mxCell id="7BEwGQgFlfe1MWZmraR1-3" value="&lt;font style=&quot;font-size: 16px;&quot;&gt;BMI&lt;br style=&quot;border-color: var(--border-color);&quot;&gt;Calculator&lt;/font&gt;" style="rounded=0;whiteSpace=wrap;html=1;fillColor=none;labelBackgroundColor=none;" parent="1" vertex="1">
          <mxGeometry x="445" y="230" width="120" height="60" as="geometry" />
        </mxCell>
        <mxCell id="7BEwGQgFlfe1MWZmraR1-4" value="&lt;font style=&quot;font-size: 16px;&quot;&gt;Calorie Intake&lt;/font&gt;" style="rounded=0;whiteSpace=wrap;html=1;fillColor=none;labelBackgroundColor=none;" parent="1" vertex="1">
          <mxGeometry x="550" y="520" width="120" height="60" as="geometry" />
        </mxCell>
        <mxCell id="7BEwGQgFlfe1MWZmraR1-5" value="&lt;font style=&quot;font-size: 16px;&quot;&gt;Prediction&lt;/font&gt;" style="rounded=0;whiteSpace=wrap;html=1;fillColor=none;labelBackgroundColor=none;" parent="1" vertex="1">
          <mxGeometry x="550" y="630" width="120" height="60" as="geometry" />
        </mxCell>
        <mxCell id="7BEwGQgFlfe1MWZmraR1-7" value="&lt;font style=&quot;font-size: 16px;&quot;&gt;Lunch&lt;/font&gt;" style="rounded=0;whiteSpace=wrap;html=1;fillColor=none;labelBackgroundColor=none;" parent="1" vertex="1">
          <mxGeometry x="542.2" y="800" width="137.8" height="60" as="geometry" />
        </mxCell>
        <mxCell id="7BEwGQgFlfe1MWZmraR1-8" value="&lt;font style=&quot;font-size: 16px;&quot;&gt;Dinner&lt;/font&gt;" style="rounded=0;whiteSpace=wrap;html=1;fillColor=none;labelBackgroundColor=none;" parent="1" vertex="1">
          <mxGeometry x="730" y="800" width="150" height="60" as="geometry" />
        </mxCell>
        <mxCell id="7BEwGQgFlfe1MWZmraR1-9" value="&lt;font style=&quot;font-size: 16px;&quot;&gt;Breakfast&lt;/font&gt;" style="rounded=0;whiteSpace=wrap;html=1;fillColor=none;labelBackgroundColor=none;" parent="1" vertex="1">
          <mxGeometry x="344" y="800" width="140" height="60" as="geometry" />
        </mxCell>
        <mxCell id="7BEwGQgFlfe1MWZmraR1-10" value="&lt;font style=&quot;font-size: 16px;&quot;&gt;Nutrition&lt;/font&gt;&lt;div&gt;&lt;span style=&quot;font-size: 16px;&quot;&gt;Value&lt;/span&gt;&lt;/div&gt;" style="rounded=0;whiteSpace=wrap;html=1;fillColor=none;labelBackgroundColor=none;" parent="1" vertex="1">
          <mxGeometry x="555" y="1018.25" width="120" height="54.5" as="geometry" />
        </mxCell>
        <mxCell id="7BEwGQgFlfe1MWZmraR1-11" value="&lt;font style=&quot;font-size: 16px;&quot;&gt;Food&lt;br style=&quot;border-color: var(--border-color);&quot;&gt;Combination&lt;/font&gt;" style="rounded=0;whiteSpace=wrap;html=1;fillColor=none;labelBackgroundColor=none;" parent="1" vertex="1">
          <mxGeometry x="415" y="1018.25" width="115" height="54.5" as="geometry" />
        </mxCell>
        <mxCell id="7BEwGQgFlfe1MWZmraR1-12" style="edgeStyle=orthogonalEdgeStyle;rounded=0;orthogonalLoop=1;jettySize=auto;html=1;exitX=0.5;exitY=1;exitDx=0;exitDy=0;labelBackgroundColor=none;fontColor=default;" parent="1" source="7BEwGQgFlfe1MWZmraR1-3" target="7BEwGQgFlfe1MWZmraR1-3" edge="1">
          <mxGeometry relative="1" as="geometry" />
        </mxCell>
        <mxCell id="7BEwGQgFlfe1MWZmraR1-13" value="" style="endArrow=classic;html=1;rounded=0;exitX=0.5;exitY=1;exitDx=0;exitDy=0;entryX=1;entryY=0.5;entryDx=0;entryDy=0;labelBackgroundColor=none;fontColor=default;strokeWidth=1;" parent="1" source="7BEwGQgFlfe1MWZmraR1-2" target="7BEwGQgFlfe1MWZmraR1-1" edge="1">
          <mxGeometry width="50" height="50" relative="1" as="geometry">
            <mxPoint x="800" y="350" as="sourcePoint" />
            <mxPoint x="850" y="300" as="targetPoint" />
            <Array as="points">
              <mxPoint x="735" y="430" />
            </Array>
          </mxGeometry>
        </mxCell>
        <mxCell id="6-ax5gqfqIAEhhLST6IZ-3" style="edgeStyle=orthogonalEdgeStyle;rounded=0;orthogonalLoop=1;jettySize=auto;html=1;exitX=0.5;exitY=1;exitDx=0;exitDy=0;entryX=0;entryY=0.5;entryDx=0;entryDy=0;" parent="1" source="6-ax5gqfqIAEhhLST6IZ-1" target="7BEwGQgFlfe1MWZmraR1-1" edge="1">
          <mxGeometry relative="1" as="geometry" />
        </mxCell>
        <mxCell id="6-ax5gqfqIAEhhLST6IZ-1" value="&lt;font style=&quot;font-size: 16px;&quot;&gt;BMR&lt;br&gt;Calculator&lt;/font&gt;" style="rounded=0;whiteSpace=wrap;html=1;" parent="1" vertex="1">
          <mxGeometry x="445" y="320" width="120" height="60" as="geometry" />
        </mxCell>
        <mxCell id="tfpbgC91K9y8WhQnjP1T-1" value="&lt;font style=&quot;font-size: 16px;&quot;&gt;Preparation&amp;nbsp;&lt;/font&gt;&lt;div style=&quot;font-size: 16px;&quot;&gt;&lt;font style=&quot;font-size: 16px;&quot;&gt;Guide&lt;/font&gt;&lt;/div&gt;" style="rounded=0;whiteSpace=wrap;html=1;fillColor=none;" vertex="1" parent="1">
          <mxGeometry x="707" y="1012.75" width="120" height="60" as="geometry" />
        </mxCell>
      </root>
    </mxGraphModel>
  </diagram>
</mxfile>
